HIERARCHY
ROOT RootJoint
{
    OFFSET   0.000000   0.000000   0.000000
    CHANNELS 6 Xposition Yposition Zposition Xrotation Yrotation Zrotation
    JOINT pelvis_lowerback
    {
        OFFSET   0.000000   0.093605   0.000000
        CHANNELS 3 Xrotation Yrotation Zrotation
        JOINT lowerback_torso
        {
            OFFSET   0.000000   0.100000   0.000000
            CHANNELS 3 Xrotation Yrotation Zrotation
            JOINT torso_head
            {
                OFFSET   0.000000   0.282350   0.000000
                CHANNELS 3 Xrotation Yrotation Zrotation
                End Site
                {
                    OFFSET   0.000000   0.192650   0.000000
                }
            }
            JOINT rTorso_Clavicle
            {
                OFFSET  -0.001000   0.157500   0.000000
                CHANNELS 3 Xrotation Yrotation Zrotation
                JOINT rShoulder
                {
                    OFFSET  -0.117647   0.000000   0.000000
                    CHANNELS 3 Xrotation Yrotation Zrotation
                    JOINT rElbow
                    {
                        OFFSET  -0.245000   0.000000   0.000000
                        CHANNELS 3 Xrotation Yrotation Zrotation
                        JOINT rWrist
                        {
                            OFFSET  -0.240000   0.000000   0.000000
                            CHANNELS 3 Xrotation Yrotation Zrotation
                            End Site
                            {
                                OFFSET  -0.116353  -0.002500   0.000000
                            }
                        }
                    }
                }
            }
            JOINT lTorso_Clavicle
            {
                OFFSET   0.001000   0.157500   0.000000
                CHANNELS 3 Xrotation Yrotation Zrotation
                JOINT lShoulder
                {
                    OFFSET   0.117647   0.000000   0.000000
                    CHANNELS 3 Xrotation Yrotation Zrotation
                    JOINT lElbow
                    {
                        OFFSET   0.245000   0.000000   0.000000
                        CHANNELS 3 Xrotation Yrotation Zrotation
                        JOINT lWrist
                        {
                            OFFSET   0.240000   0.000000   0.000000
                            CHANNELS 3 Xrotation Yrotation Zrotation
                            End Site
                            {
                                OFFSET   0.116353  -0.002500   0.000000
                            }
                        }
                    }
                }
            }
        }
    }
    JOINT rHip
    {
        OFFSET  -0.100000  -0.051395   0.000000
        CHANNELS 3 Xrotation Yrotation Zrotation
        JOINT rKnee
        {
            OFFSET   0.000000  -0.410000   0.000000
            CHANNELS 3 Xrotation Yrotation Zrotation
            JOINT rAnkle
            {
                OFFSET   0.000000  -0.390000   0.000000
                CHANNELS 3 Xrotation Yrotation Zrotation
                JOINT rToeJoint
                {
                    OFFSET   0.000000  -0.050000   0.130000
                    CHANNELS 3 Xrotation Yrotation Zrotation
                    End Site
                    {
                        OFFSET  -0.010000   0.002000   0.060000
                    }
                }
            }
        }
    }
    JOINT lHip
    {
        OFFSET   0.100000  -0.051395   0.000000
        CHANNELS 3 Xrotation Yrotation Zrotation
        JOINT lKnee
        {
            OFFSET   0.000000  -0.410000   0.000000
            CHANNELS 3 Xrotation Yrotation Zrotation
            JOINT lAnkle
            {
                OFFSET   0.000000  -0.390000   0.000000
                CHANNELS 3 Xrotation Yrotation Zrotation
                JOINT lToeJoint
                {
                    OFFSET   0.000000  -0.050000   0.130000
                    CHANNELS 3 Xrotation Yrotation Zrotation
                    End Site
                    {
                        OFFSET   0.010000   0.002000   0.060000
                    }
                }
            }
        }
    }
}
MOTION
Frames: 14
Frame Time:   0.008333
 -2.667660   0.922225   3.749255  20.672200  -5.879530  12.471272  -0.522983  -1.238185  -1.430862  -1.589937  -1.747393  -0.221046  -6.377012  -5.940211   0.209585   1.475394 -17.617214  -5.497719  13.698774  -5.875630  58.049327  -0.000552  -0.021095  -0.000250   0.942985   0.972310   9.788221   5.208535  17.594325   6.508098  16.718835   0.144158 -56.176352   0.017915   3.679472   0.003540   1.593867  -2.030818 -13.464314 -20.393526   1.141556   0.417931   4.206714   0.001246   0.001658  -6.205733  -3.347797  -1.102462   1.167543  -0.000075   0.000641 -16.816684  13.892196   6.092912  46.388497  -0.021112   0.015134  13.041466   8.968325 -13.452209  -0.986377  -0.004541   0.006402
 -2.670030   0.922485   3.748636  20.819559  -5.786249  12.800589  -0.702734  -1.308440  -1.800201  -1.550147  -1.897223  -0.330778  -6.215872  -5.876384   0.234318   1.420643 -17.980258  -5.750954  13.411177  -6.659916  57.057107  -0.000486  -0.016875  -0.000150   0.990562   0.752196  10.384606   4.980464  17.598516   6.898296  16.364271   0.481871 -54.327441   0.022011   4.113014   0.004703   1.750077  -1.763653 -14.112459 -20.301972   1.034810   0.234193   3.630702   0.001720   0.002105  -5.891483  -3.155908  -1.195189   1.195827  -0.000069   0.000520 -17.278841  13.779418   6.815383  46.846790  -0.019717   0.014770  12.423607   9.590933 -12.933185  -0.833146  -0.004976   0.006744
 -2.672579   0.922745   3.747831  20.927842  -5.639870  13.100980  -0.877289  -1.402834  -2.200649  -1.508071  -2.085038  -0.450195  -6.067733  -5.808320   0.258952   1.364452 -18.279113  -6.128016  13.112663  -7.380982  55.992547  -0.000432  -0.013499  -0.000082   1.020658   0.554898  10.819922   4.733632  17.492332   7.472584  15.981207   0.754188 -52.374052   0.025242   4.498656   0.005214   1.878602  -1.547334 -14.431108 -20.176019   0.987359   0.049327   3.043782   0.002044   0.001850  -5.547748  -2.921516  -1.266369   1.224010  -0.000068   0.000463 -17.772676  13.648264   7.550021  47.227964  -0.017961   0.014151  11.834288  10.172146 -12.438231  -0.726620  -0.004819   0.006501
 -2.675194   0.922994   3.746866  20.990466  -5.473978  13.383423  -1.028230  -1.524581  -2.613898  -1.447301  -2.298773  -0.582081  -5.937600  -5.743500   0.276114   1.304606 -18.517123  -6.585648  12.803307  -8.036940  54.904364  -0.000384  -0.010797  -0.000035   1.040472   0.407295  11.073594   4.489300  17.316675   8.146531  15.591870   0.974011 -50.422980   0.027319   4.845375   0.005244   1.983509  -1.403586 -14.480739 -20.029306   0.972835  -0.135329   2.490792   0.002236   0.001329  -5.207386  -2.677190  -1.318776   1.252825  -0.000072   0.000439 -18.270482  13.510241   8.266292  47.560876  -0.016139   0.013364  11.276883  10.709947 -11.969035  -0.635412  -0.004503   0.006106
 -2.677815   0.923218   3.745774  21.016958  -5.316643  13.656026  -1.154687  -1.661076  -3.030666  -1.367496  -2.523166  -0.725135  -5.820867  -5.682848   0.287159   1.244560 -18.709698  -7.088250  12.489693  -8.634531  53.820347  -0.000338  -0.008636  -0.000005   1.051343   0.303093  11.191151   4.256578  17.101691   8.863115  15.207785   1.151892 -48.521514   0.028324   5.160505   0.004989   2.071340  -1.310927 -14.360786 -19.871391   0.972362  -0.313537   1.976229   0.002351   0.000852  -4.879297  -2.439491  -1.358593   1.282159  -0.000079   0.000423 -18.759955  13.372457   8.947401  47.857983  -0.014387   0.012442  10.750736  11.207512 -11.524975  -0.555403  -0.004123   0.005629
 -2.680413   0.923421   3.744581  21.017599  -5.186602  13.920633  -1.258325  -1.802262  -3.442531  -1.272365  -2.747303  -0.875776  -5.714727  -5.626247   0.293703   1.187307 -18.869168  -7.609847  12.177904  -9.180462  52.759715  -0.000296  -0.006907   0.000014   1.055836   0.229712  11.214036   4.039759  16.867787   9.585675  14.835949   1.296307 -46.697082   0.028442   5.449389   0.004581   2.147631  -1.250270 -14.142150 -19.711136   0.977742  -0.477369   1.500451   0.002413   0.000535  -4.556921  -2.214172  -1.388526   1.297246  -0.000076   0.000372 -19.235077  13.237439   9.587541  48.125808  -0.012766   0.011422  10.254777  11.667966 -11.105187  -0.484259  -0.003729   0.005114
 -2.682973   0.923605   3.743313  20.999420  -5.092060  14.179068  -1.342020  -1.943088  -3.845192  -1.165640  -2.965518  -1.030997  -5.617309  -5.573479   0.296993   1.134992 -19.005284  -8.132817  11.872977  -9.680986  51.735610  -0.000256  -0.005524   0.000025   1.056492   0.175668  11.174706   3.840475  16.628435  10.292406  14.480535   1.414120 -44.964520   0.027878   5.715983   0.004106   2.216258  -1.208559 -13.872108 -19.552588   0.985757  -0.624163   1.061281   0.002436   0.000385  -4.239316  -2.002479  -1.410245   1.294975  -0.000059   0.000293 -19.691658  13.106366  10.183148  48.369170  -0.011300   0.010352   9.787722  12.094200 -10.708733  -0.420573  -0.003344   0.004589
 -2.685579   0.923080   3.741925  20.863801  -4.910350  14.325196  -1.323025  -2.052435  -4.071474  -1.197087  -3.252899  -1.293985  -5.419793  -5.596412   0.169428   0.904585 -19.112382  -8.787460  11.274833 -10.398792  50.061603  -0.000227  -0.004418   0.000036   1.224745  -0.273282  11.816808   3.498912  16.390230  10.971649  13.942880   1.541354 -42.453720   0.035084   6.245084   0.005936   2.358463  -1.147431 -14.248597 -19.659260   0.894781  -0.653361   1.408532   0.001389   0.000461  -4.605330  -2.004936  -1.576654   1.434287  -0.000082   0.000274 -20.155769  12.875738  10.923470  48.513842  -0.009682   0.009121   9.281601  12.471952 -10.275709  -0.338580  -0.003123   0.004317
 -2.688331   0.922778   3.740495  20.661038  -4.753650  14.338751  -1.282459  -2.132917  -4.209165  -1.215197  -3.514379  -1.529287  -5.242635  -5.620110   0.041274   0.654009 -19.090036  -9.564811  10.618393 -10.994061  48.287601  -0.000200  -0.003532   0.000041   1.357161  -0.622878  12.151664   3.176494  16.056447  11.751247  13.406176   1.595640 -39.923345   0.040078   6.725602   0.007202   2.484635  -1.090019 -14.294941 -19.807637   0.766963  -0.536992   1.952416   0.000131   0.000616  -4.818858  -2.047653  -1.769153   1.734742  -0.000111   0.000206 -20.633337  12.604411  11.790008  48.559574  -0.007936   0.007571   8.804030  12.822773  -9.865741  -0.258304  -0.002889   0.004058
 -2.691064   0.922496   3.739141  20.381964  -4.578852  14.359737  -1.237980  -2.212762  -4.378118  -1.203203  -3.760445  -1.768592  -5.085221  -5.642759  -0.080576   0.406395 -18.988993 -10.421159   9.944392 -11.492437  46.510321  -0.000176  -0.002824   0.000042   1.457542  -0.839556  12.263622   2.883364  15.668801  12.606426  12.886306   1.595146 -37.448478   0.042887   7.160611   0.008042   2.589527  -1.093629 -14.115689 -19.886666   0.624741  -0.450484   2.524765  -0.000899   0.000853  -5.070091  -2.106348  -1.945138   1.670835  -0.000072   0.000167 -21.093500  12.329882  12.607165  48.569203  -0.006377   0.006122   8.353300  13.147382  -9.478896  -0.189449  -0.002588   0.003749
 -2.693744   0.922225   3.737865  20.055535  -4.406215  14.393217  -1.190395  -2.281186  -4.562829  -1.172908  -3.984660  -2.014358  -4.946367  -5.663900  -0.198371   0.170927 -18.837802 -11.308511   9.271228 -11.910882  44.766140  -0.000153  -0.002258   0.000041   1.532391  -0.956192  12.223106   2.621687  15.257902  13.482392  12.392066   1.554954 -35.068611   0.043884   7.557827   0.008552   2.677338  -1.144640 -13.797925 -19.908050   0.481444  -0.388496   3.090851  -0.001677   0.001073  -5.332376  -2.168844  -2.113803   1.621505  -0.000043   0.000134 -21.552610  12.063855  13.372007  48.562785  -0.005071   0.004869   7.929132  13.447356  -9.114833  -0.129277  -0.002272   0.003418
 -2.696360   0.921959   3.736669  19.697625  -4.246570  14.439464  -1.138505  -2.335598  -4.754933  -1.129158  -4.184583  -2.262620  -4.823124  -5.683582  -0.311522  -0.047801 -18.656522 -12.195874   8.611447 -12.263305  43.079852  -0.000132  -0.001805   0.000038   1.589185  -1.004266  12.085656   2.390752  14.844726  14.345516  11.928287   1.487391 -32.807187   0.043497   7.923452   0.008803   2.753949  -1.224011 -13.408773 -19.882558   0.343506  -0.345511   3.641548  -0.002238   0.001236  -5.597317  -2.228577  -2.275267   1.583646  -0.000024   0.000108 -22.012427  11.806683  14.084182  48.545461  -0.003996   0.003808   7.530425  13.724665  -8.772505  -0.076372  -0.001964   0.003082
 -2.698910   0.921691   3.735558  19.319036  -4.105174  14.497056  -1.082170  -2.375926  -4.948686  -1.075084  -4.360340  -2.509439  -4.712721  -5.701921  -0.419381  -0.247692 -18.459987 -13.063105   7.973737 -12.561645  41.466890  -0.000113  -0.001442   0.000035   1.634020  -1.008133  11.890958   2.188423  14.443325  15.175999  11.497204   1.402399 -30.675438   0.042119   8.262383   0.008851   2.824081  -1.316130 -12.992378 -19.818996   0.214071  -0.316460   4.173754  -0.002625   0.001335  -5.861258  -2.282272  -2.429886   1.554902  -0.000011   0.000087 -22.471859  11.557576  14.745556  48.519303  -0.003116   0.002916   7.155890  13.981145  -8.450806  -0.029828  -0.001678   0.002752
 -2.701439   0.921827   3.734293  19.084618  -3.992077  14.586052  -1.012146  -2.341094  -5.209142  -1.326700  -4.483455  -2.762566  -4.443871  -5.702181  -0.404782  -0.567678 -18.268761 -13.931801   7.241317 -12.814703  39.328363  -0.000098  -0.001152   0.000032   1.744418  -1.175418  12.232137   1.793949  14.023160  16.082902  10.566096   1.384882 -28.032598   0.043420   8.667286   0.012231   2.999479  -1.178077 -13.083874 -19.449635   0.105728  -0.312243   3.742880  -0.001511   0.000949  -5.507550  -2.205452  -2.501598   1.415565   0.000092  -0.000046 -22.979971  11.064736  15.118156  48.260267  -0.001607   0.001928   6.325238  14.261121  -7.920978   0.024719  -0.001535   0.002315
